#!OML:ASF E:\Steps\Project 1\Capture day 1\Session 2\Subject.ASF
:FULLY-SPECIFIED
:DEGREES
220
root 6.25577 13.8092 14.9648 -153.807 -1.1554 179.306
lowerback -0.727411 -4.08227 -3.14355
upperback 4.6608 -5.62288 1.07983
thorax 5.65318 -3.04387 2.52919
lowerneck -0.991291 -6.46817 1.62958
upperneck 4.37307 -8.73567 2.2919
head 1.55433 -4.27962 0.295903
rclavicle -9.54166e-015 -6.36111e-015
rhumerus -35.3629 10.4073 -72.9707
rradius 44.7087
rwrist -8.22023
rhand -8.3989 -47.1614
rfingers 7.12502
rthumb 17.525 -76.3915
lclavicle -9.54166e-015 -6.36111e-015
lhumerus -15.8953 -21.4519 69.3932
lradius 55.6785
lwrist 10.1216
lhand -25.8705 -15.3317
lfingers 7.12502
lthumb 0.670801 14.647
rfemur -94.3945 -25.9362 8.75157
rtibia 71.2653
rfoot -10.7548 -7.70904
rtoes -33.0489
lfemur -12.6931 -13.1078 4.78693
ltibia 38.7741
lfoot -14.2903 13.3221
ltoes -60.3604
221
root 6.33398 13.8448 14.9152 -153.321 -1.0088 178.906
lowerback -0.530067 -4.21384 -2.84441
upperback 4.48566 -5.8097 1.22671
thorax 5.3543 -3.11778 2.5287
lowerneck -0.163413 -6.01655 1.11915
upperneck 3.94009 -8.07902 2.00752
head 1.2802 -3.97657 0.337616
rclavicle -1.23246e-014 8.34896e-015
rhumerus -34.5467 12.2495 -72.1832
rradius 45.6943
rwrist -9.01065
rhand -8.54075 -47.2521
rfingers 7.12502
rthumb 17.3885 -76.4943
lclavicle -1.23246e-014 8.34896e-015
lhumerus -15.4528 -21.8322 69.4188
lradius 56.0723
lwrist 10.0641
lhand -25.6328 -15.4283
lfingers 7.12502
lthumb 0.900393 14.5495
rfemur -94.9208 -25.6826 8.64339
rtibia 71.6952
rfoot -11.3363 -8.20308
rtoes -32.777
lfemur -13.0352 -12.8421 4.75895
ltibia 38.2755
lfoot -12.3881 13.0698
ltoes -59.2982
222
root 6.41202 13.8825 14.8602 -152.813 -0.894313 178.528
lowerback -0.45061 -4.0888 -2.11573
upperback 4.73011 -5.68344 1.04138
thorax 5.46187 -3.03187 1.93955
lowerneck -0.955726 -5.97698 1.49022
upperneck 3.83163 -8.05729 1.91853
head 1.36106 -3.963 0.22741
rclavicle -7.95139e-016 8.74653e-015
rhumerus -33.0788 12.534 -71.4094
rradius 46.3766
rwrist -9.41684
rhand -8.54226 -46.1709
rfingers 7.12502
rthumb 17.387 -75.4132
lclavicle -7.95139e-016 8.74653e-015
lhumerus -13.6779 -22.9732 68.5157
lradius 56.3718
lwrist 10.1961
lhand -25.7873 -15.8142
lfingers 7.12502
lthumb 0.75117 14.1642
rfemur -95.4378 -25.5291 8.62812
rtibia 71.9211
rfoot -11.6405 -8.66376
rtoes -32.8937
lfemur -13.3127 -12.6498 4.74245
ltibia 37.6126
lfoot -10.563 13.0446
ltoes -58.3926
223
root 6.49565 13.9403 14.7905 -153.045 -1.32257 178.011
lowerback 0.382044 -4.32615 -1.6172
upperback 4.8359 -6.05564 1.06349
thorax 5.06928 -3.20759 1.73245
lowerneck -0.508901 -5.86431 1.45536
upperneck 3.453 -7.88364 1.79002
head 1.16048 -3.88778 0.218744
rclavicle 4.37326e-015 3.02153e-014
rhumerus -31.8673 13.7194 -70.6154
rradius 46.8462
rwrist -9.76577
rhand -8.44863 -45.43
rfingers 7.12502
rthumb 17.4771 -74.6644
lclavicle 4.37326e-015 3.02153e-014
lhumerus -12.866 -23.7203 67.9612
lradius 56.6328
lwrist 10.2773
lhand -25.8743 -16.4176
lfingers 7.12502
lthumb 0.667183 13.5611
rfemur -94.534 -25.7652 8.11196
rtibia 71.7097
rfoot -11.9155 -8.94298
rtoes -32.8402
lfemur -12.8628 -13.1263 4.66196
ltibia 36.5152
lfoot -8.36123 13.1041
ltoes -58.3824
224
root 6.58045 13.9899 14.7336 -152.52 -1.16836 177.647
lowerback 0.606233 -4.37593 -1.25273
upperback 4.69367 -6.1247 1.14026
thorax 4.76552 -3.22357 1.63617
lowerneck -0.435587 -5.72764 1.50757
upperneck 3.3704 -7.68622 1.39029
head 1.10232 -3.79572 0.0963715
rclavicle 5.56597e-015 -1.98785e-015
rhumerus -30.6965 15.0456 -69.6827
rradius 47.4236
rwrist -10.1341
rhand -8.63839 -45.4451
rfingers 7.12502
rthumb 17.2945 -74.6956
lclavicle 5.56597e-015 -1.98785e-015
lhumerus -12.0168 -24.3775 67.529
lradius 56.8496
lwrist 10.1421
lhand -25.9768 -17.0415
lfingers 7.12502
lthumb 0.56815 12.9375
rfemur -94.7013 -25.2263 7.69282
rtibia 71.8693
rfoot -12.4864 -9.32762
rtoes -32.4075
lfemur -12.8274 -12.8612 4.66707
ltibia 35.1454
lfoot -6.01008 13.4258
ltoes -58.2328
225
root 6.66749 14.0424 14.6727 -151.873 -0.753228 177.094
lowerback 0.623714 -4.32994 -1.10174
upperback 4.57513 -6.05257 1.09538
thorax 4.60689 -3.17522 1.5189
lowerneck -0.502951 -5.60172 1.42411
upperneck 3.18745 -7.51233 1.18167
head 1.05091 -3.71585 0.0499649
rclavicle 3.43897e-014 -1.70955e-014
rhumerus -29.5548 16.0356 -68.6761
rradius 48.1097
rwrist -10.3216
rhand -8.74148 -45.7679
rfingers 7.12502
rthumb 17.1953 -75.0271
lclavicle 3.43897e-014 -1.70955e-014
lhumerus -11.0823 -25.1311 66.979
lradius 57.2557
lwrist 10.0616
lhand -26.0704 -17.0068
lfingers 7.12502
lthumb 0.477787 12.9724
rfemur -95.0933 -24.8227 7.32432
rtibia 71.7808
rfoot -12.7788 -9.46718
rtoes -31.7472
lfemur -12.767 -12.5301 4.35802
ltibia 33.5968
lfoot -3.59834 13.8897
ltoes -57.6869
